<?xml version="1.0" encoding="windows-1252"?>
<!-- Generator: Adobe Illustrator 19.0.0, SVG Export Plug-In . SVG Version: 6.00 Build 0)  -->
<svg version="1.1" id="Capa_1" xmlns="http://www.w3.org/2000/svg" xmlns:xlink="http://www.w3.org/1999/xlink" x="0px" y="0px" viewBox="0 0 464 464" style="enable-background:new 0 0 464 464;" xml:space="preserve">
<path style="fill:#F49E21;" d="M64,0h336v464H64V0z"/>
<g>
	<path style="fill:#DD3E46;" d="M32,48h64v48H32V48z"/>
	<path style="fill:#DD3E46;" d="M32,128h64v48H32V128z"/>
	<path style="fill:#DD3E46;" d="M32,208h64v48H32V208z"/>
	<path style="fill:#DD3E46;" d="M32,288h64v48H32V288z"/>
	<path style="fill:#DD3E46;" d="M32,376h64v48H32V376z"/>
</g>
<g>
	<path style="fill:#F4F4E6;" d="M144,336h192v80H144V336z"/>
	<path style="fill:#F4F4E6;" d="M280,152h-80c-4.418,0-8-3.582-8-8s3.582-8,8-8h80c4.418,0,8,3.582,8,8S284.418,152,280,152z"/>
	<path style="fill:#F4F4E6;" d="M280,184h-80c-4.418,0-8-3.582-8-8s3.582-8,8-8h80c4.418,0,8,3.582,8,8S284.418,184,280,184z"/>
</g>
<path style="fill:#FCF05A;" d="M400,16h32v448h-32V16z"/>
<g>
</g>
<g>
</g>
<g>
</g>
<g>
</g>
<g>
</g>
<g>
</g>
<g>
</g>
<g>
</g>
<g>
</g>
<g>
</g>
<g>
</g>
<g>
</g>
<g>
</g>
<g>
</g>
<g>
</g>
</svg>