<?xml version="1.0" encoding="windows-1252"?>
<!-- Generator: Adobe Illustrator 19.0.0, SVG Export Plug-In . SVG Version: 6.00 Build 0)  -->
<svg version="1.1" id="Capa_1" xmlns="http://www.w3.org/2000/svg" xmlns:xlink="http://www.w3.org/1999/xlink" x="0px" y="0px" viewBox="0 0 512 512" style="enable-background:new 0 0 512 512;" xml:space="preserve">
<path style="fill:#415A6B;" d="M278.4,74.667c0,82.133-35.2,140.8-78.933,140.8s-77.867-57.6-77.867-140.8  C121.6,5.333,156.8,0,200.533,0S278.4,6.4,278.4,74.667z"/>
<path style="fill:#F7B64C;" d="M148.267,166.4l-1.067,43.733c0,0-9.6,45.867,5.333,74.667c52.267-10.667,109.867-17.067,92.8-74.667  V166.4H148.267z"/>
<polygon style="fill:#CED6E0;" points="250.667,435.2 298.667,273.067 178.133,273.067 121.6,258.133 124.8,435.2 "/>
<polygon style="fill:#F3705A;" points="227.2,435.2 211.2,315.733 182.4,315.733 166.4,435.2 "/>
<polygon style="fill:#F05540;" points="211.2,315.733 225.067,301.867 197.333,273.067 168.533,301.867 182.4,315.733 "/>
<path style="fill:#F3F3F3;" d="M148.267,210.133c0,0-4.267,13.867,0,22.4c4.267,8.533,49.067,40.533,49.067,40.533l-41.6,42.667  L128,260.267l8.533-30.933c1.067-4.267,3.2-9.6,6.4-12.8C144,214.4,146.133,212.267,148.267,210.133z"/>
<path style="fill:#344A5E;" d="M151.467,435.2L124.8,309.333l-2.133-58.667L40.533,288c-19.2,8.533-33.067,27.733-34.133,49.067  L0,435.2H151.467z"/>
<path style="fill:#415A6B;" d="M125.867,435.2h38.4c-7.467-44.8-17.067-98.133-21.333-116.267  c-8.533-34.133-5.333-90.667-5.333-90.667c-4.267,2.133-10.667,14.933-10.667,14.933c-7.467,9.6-13.867,19.2-18.133,29.867  c-6.4,14.933-14.933,35.2-14.933,35.2l22.4-1.067l-28.8,25.6L125.867,435.2z"/>
<path style="fill:#F3F3F3;" d="M245.333,210.133c0,0,4.267,13.867,0,22.4c-4.267,8.533-49.067,40.533-49.067,40.533l41.6,42.667  l26.667-54.4L256,230.4c-1.067-4.267-3.2-9.6-6.4-12.8C249.6,214.4,247.467,212.267,245.333,210.133z"/>
<path style="fill:#344A5E;" d="M393.6,435.2l-6.4-98.133c-1.067-21.333-14.933-40.533-34.133-49.067L272,251.733l-3.2,57.6  L242.133,435.2H393.6z"/>
<path style="fill:#415A6B;" d="M229.333,435.2h38.4L307.2,332.8l-28.8-25.6l22.4,1.067c0,0-8.533-19.2-14.933-35.2  C281.6,262.4,275.2,251.733,267.733,243.2c0,0-6.4-12.8-10.667-14.933c0,0,3.2,57.6-5.333,90.667  C246.4,337.067,236.8,390.4,229.333,435.2z"/>
<g>
	<path style="fill:#FFD15C;" d="M269.867,123.733c-5.333-18.133-2.133-35.2-16-51.2l-1.067-1.067   C244.267,60.8,228.267,60.8,217.6,70.4c-11.733,10.667-28.8,17.067-49.067,17.067c-10.667,0-21.333-2.133-29.867-5.333   c-3.2,8.533-7.467,34.133-7.467,36.267c-2.133,8.533-2.133,17.067-2.133,25.6c0,52.267,30.933,94.933,68.267,94.933   S265.6,196.267,265.6,144c0-1.067,0-3.2,0-4.267C269.867,137.6,270.933,131.2,269.867,123.733z"/>
	
		<ellipse transform="matrix(0.1366 0.9906 -0.9906 0.1366 257.1397 -2.9719)" style="fill:#FFD15C;" cx="130.275" cy="146.03" rx="26.666" ry="11.733"/>
	
		<ellipse transform="matrix(0.1366 -0.9906 0.9906 0.1366 89.0986 394.5771)" style="fill:#FFD15C;" cx="270.91" cy="146.175" rx="26.666" ry="11.733"/>
</g>
<path style="fill:#F3F3F3;" d="M512,232.533V489.6c0,11.733-9.6,22.4-22.4,22.4H309.333c-11.733,0-22.4-9.6-22.4-22.4V232.533  c0-11.733,9.6-22.4,22.4-22.4H489.6C502.4,210.133,512,220.8,512,232.533z"/>
<g>
	<path style="fill:#66C6B9;" d="M395.733,250.667L384,252.8c-1.067-5.333-3.2-8.533-8.533-8.533c-3.2,0-5.333,1.067-7.467,3.2   c-2.133,2.133-3.2,6.4-3.2,12.8c0,6.4,1.067,10.667,3.2,13.867c2.133,3.2,4.267,4.267,7.467,4.267c2.133,0,4.267-1.067,5.333-2.133   c1.067-1.067,2.133-4.267,3.2-8.533l11.733,2.133c-2.133,12.8-9.6,20.267-20.267,20.267c-7.467,0-12.8-3.2-16-8.533   c-3.2-5.333-5.333-11.733-5.333-20.267c0-9.6,2.133-16,6.4-21.333c4.267-5.333,9.6-7.467,16-7.467c5.333,0,9.6,1.067,12.8,4.267   C391.467,240,393.6,244.267,395.733,250.667z"/>
	<path style="fill:#66C6B9;" d="M417.067,289.067l-18.133-54.4h12.8l8.533,27.733l2.133,9.6l2.133-9.6l8.533-27.733H444.8   l-18.133,54.4H417.067z"/>
</g>
<g>
	<rect x="309.333" y="433.067" style="fill:#CED6E0;" width="180.267" height="17.067"/>
	<rect x="309.333" y="472.533" style="fill:#CED6E0;" width="89.6" height="17.067"/>
	<rect x="309.333" y="392.533" style="fill:#CED6E0;" width="180.267" height="17.067"/>
	<rect x="309.333" y="353.067" style="fill:#CED6E0;" width="180.267" height="17.067"/>
	<rect x="309.333" y="312.533" style="fill:#CED6E0;" width="180.267" height="17.067"/>
</g>
<g>
</g>
<g>
</g>
<g>
</g>
<g>
</g>
<g>
</g>
<g>
</g>
<g>
</g>
<g>
</g>
<g>
</g>
<g>
</g>
<g>
</g>
<g>
</g>
<g>
</g>
<g>
</g>
<g>
</g>
</svg>